<?xml version="1.0" standalone="no"?>
<!DOCTYPE svg PUBLIC "-//W3C//DTD SVG 20010904//EN"
 "http://www.w3.org/TR/2001/REC-SVG-20010904/DTD/svg10.dtd">
<svg version="1.0" xmlns="http://www.w3.org/2000/svg"
 width="2304.000000pt" height="1536.000000pt" viewBox="0 0 2304.000000 1536.000000"
 preserveAspectRatio="xMidYMid meet">

<g transform="translate(0.000000,1536.000000) scale(0.100000,-0.100000)"
fill="#000000" stroke="none">
<path d="M0 7680 l0 -7680 11520 0 11520 0 0 7680 0 7680 -11520 0 -11520 0 0
-7680z m13790 7400 c0 -5 -4 -10 -10 -10 -5 0 -10 5 -10 10 0 6 5 10 10 10 6
0 10 -4 10 -10z m-1483 -1772 c-3 -8 -6 -5 -6 6 -1 11 2 17 5 13 3 -3 4 -12 1
-19z m1123 -1914 c0 -17 3 -34 7 -37 9 -10 10 -56 1 -51 -13 8 -9 -10 8 -34 9
-14 26 -22 43 -22 15 0 32 -5 39 -12 7 -7 24 -12 40 -13 22 0 28 -5 30 -27 2
-20 -1 -28 -12 -28 -16 0 -22 -21 -9 -34 4 -3 8 -12 9 -19 2 -7 6 -22 10 -34
9 -33 -14 -29 -28 5 -7 15 -24 43 -37 62 -14 19 -26 37 -28 39 -2 2 -14 -1
-28 -7 -16 -7 -23 -17 -19 -27 3 -8 1 -15 -6 -15 -6 0 -10 -8 -9 -17 3 -32 -1
-44 -11 -38 -5 3 -10 -1 -10 -9 0 -9 -5 -16 -11 -16 -6 0 -8 8 -4 19 3 11 2
22 -4 25 -5 3 -19 26 -31 51 -12 25 -28 45 -36 45 -8 0 -14 7 -14 16 0 8 -4
13 -9 10 -5 -3 -14 1 -21 9 -7 8 -19 15 -26 15 -19 0 -18 16 2 24 25 10 59 7
72 -6 9 -9 12 -9 12 1 0 7 7 19 15 28 8 8 15 27 15 41 0 15 0 38 1 52 0 32 29
66 41 48 4 -7 8 -27 8 -44z m0 -358 c0 -3 -4 -8 -10 -11 -5 -3 -10 -1 -10 4 0
6 5 11 10 11 6 0 10 -2 10 -4z m-170 -226 c0 -5 -2 -10 -4 -10 -3 0 -8 5 -11
10 -3 6 -1 10 4 10 6 0 11 -4 11 -10z m44 -67 c3 -28 21 -65 48 -98 81 -99
120 -164 144 -244 17 -56 17 -54 2 -49 -18 6 -36 -53 -37 -120 l0 -57 19 25
c11 14 20 31 20 38 0 29 30 70 54 74 31 6 40 -1 25 -18 -6 -8 -8 -22 -4 -31
16 -41 16 -93 1 -99 -9 -3 -13 -10 -10 -15 3 -5 1 -9 -5 -9 -5 0 -20 -22 -32
-49 -23 -50 -36 -55 -67 -24 -11 11 -11 13 0 13 8 0 9 3 3 8 -6 4 -10 23 -10
42 1 19 -3 40 -8 47 -4 6 -7 17 -6 25 3 24 -1 41 -8 35 -13 -13 -34 53 -23 73
13 24 13 43 0 35 -5 -3 -10 1 -10 10 0 9 -4 13 -10 10 -5 -3 -10 2 -10 13 0
10 -13 31 -30 47 -16 16 -30 37 -30 47 0 10 -4 18 -10 18 -5 0 -10 6 -10 14 0
8 -7 16 -15 20 -8 3 -14 9 -13 13 2 4 -15 26 -38 48 -22 22 -35 37 -30 33 16
-12 36 -9 36 5 0 6 -11 34 -25 61 -29 56 -31 76 -10 76 7 0 18 6 22 14 11 19
45 25 60 12 7 -7 15 -26 17 -43z m579 -104 c62 -71 124 -189 99 -189 -16 0
-49 34 -67 70 -9 19 -23 42 -31 50 -13 16 -64 107 -64 116 0 15 25 -3 63 -47z
m-93 -329 c0 -5 6 -10 14 -10 7 0 67 -35 132 -79 66 -43 153 -93 194 -110 41
-18 104 -47 140 -66 90 -46 212 -86 430 -140 273 -67 354 -104 391 -177 16
-31 17 -45 10 -79 -11 -49 -31 -75 -31 -41 0 12 -6 32 -12 45 -12 20 -68 78
-99 102 -24 18 -92 42 -144 50 -27 5 -52 9 -55 10 -3 1 -23 7 -45 13 -56 16
-102 15 -109 -3 -3 -9 0 -15 9 -15 8 0 15 -6 15 -13 0 -8 9 -25 21 -38 27 -31
52 -79 45 -87 -3 -3 -25 16 -49 41 -24 26 -48 47 -55 47 -7 0 -12 6 -12 13 0
8 -6 14 -12 15 -7 1 -25 4 -40 8 -22 5 -28 3 -28 -10 0 -9 -6 -16 -12 -17 -7
0 -3 -4 10 -9 12 -5 22 -14 22 -21 0 -13 36 -60 41 -55 2 2 5 -12 6 -31 1 -20
5 -39 10 -42 11 -8 12 -23 17 -186 3 -77 9 -156 15 -175 26 -96 36 -125 86
-250 29 -74 62 -160 73 -190 11 -30 38 -105 60 -166 74 -202 95 -297 95 -414
0 -104 -2 -115 -58 -300 -9 -30 -20 -76 -25 -102 -5 -26 -14 -57 -20 -69 -18
-33 -16 -178 3 -216 18 -34 10 -82 -19 -114 -9 -10 -14 -25 -11 -33 4 -9 2
-18 -3 -21 -8 -5 -4 -70 5 -86 3 -4 0 -9 -7 -11 -16 -6 -1 -57 20 -65 53 -20
56 -74 11 -205 -16 -48 -29 -100 -29 -116 0 -15 -4 -32 -9 -37 -14 -15 -20
-161 -9 -255 10 -92 46 -269 58 -285 4 -5 11 -23 15 -40 10 -37 9 -34 23 -68
7 -15 15 -40 18 -54 4 -15 13 -38 20 -52 8 -14 14 -34 14 -43 0 -10 5 -18 10
-18 6 0 10 -7 10 -15 0 -8 4 -15 10 -15 5 0 7 -7 4 -15 -4 -8 -2 -21 3 -28 5
-6 15 -31 23 -54 7 -23 23 -50 36 -59 13 -10 20 -24 16 -32 -4 -12 1 -14 21
-10 15 3 27 1 27 -3 0 -5 -4 -9 -8 -9 -7 0 -8 -12 -3 -51 2 -11 32 -20 43 -13
6 4 5 10 -3 15 -12 7 -11 9 1 10 10 0 9 3 -4 8 -19 7 -19 8 2 13 15 4 22 2 22
-8 0 -8 7 -14 15 -14 8 0 14 3 12 8 -2 8 6 12 28 12 8 0 15 -4 15 -10 0 -5 -8
-7 -17 -4 -15 5 -15 4 -4 -4 11 -8 23 -6 44 5 20 10 33 11 39 5 19 -19 13
-250 -7 -282 -3 -5 1 -10 9 -10 9 0 16 -7 16 -15 0 -8 -4 -15 -9 -15 -4 0 -7
-20 -6 -45 1 -25 -2 -48 -7 -51 -5 -3 -5 -11 -1 -17 10 -16 10 -39 1 -52 -10
-15 -27 -128 -21 -138 3 -4 -3 -19 -12 -34 -12 -18 -14 -28 -6 -33 16 -9 4
-37 -19 -43 -25 -6 -37 3 -45 36 -5 18 -3 27 5 27 7 0 10 6 7 14 -3 7 1 24 10
36 14 20 14 22 -6 27 -24 6 -29 33 -6 33 8 0 15 5 15 10 0 14 -33 13 -48 -2
-7 -7 -12 -29 -12 -49 0 -21 -4 -40 -8 -43 -4 -3 -7 -23 -6 -45 1 -40 -8 -52
-22 -30 -12 20 -21 296 -9 307 2 2 0 15 -5 27 -5 13 -10 45 -11 70 -2 25 -7
49 -12 52 -5 3 -3 9 4 14 10 6 11 9 2 9 -7 0 -13 7 -13 15 0 8 -4 15 -8 15 -4
0 -8 16 -9 35 -1 38 -23 95 -37 95 -4 0 -5 7 -2 15 3 9 1 25 -4 35 -6 11 -14
29 -20 40 -5 11 -10 27 -10 35 0 8 -14 54 -31 103 -17 48 -32 94 -33 104 -1 9
-7 22 -12 30 -6 7 -17 33 -24 58 -7 25 -20 52 -27 61 -7 8 -13 23 -13 31 0 9
-7 32 -15 52 -9 20 -15 42 -13 49 1 7 -6 29 -15 50 -9 21 -14 43 -12 50 3 6 1
26 -4 42 -7 22 -10 25 -11 10 -2 -17 -3 -16 -10 5 -6 23 -8 22 -15 -15 -4 -22
-11 -44 -15 -50 -28 -40 -44 -114 -56 -260 -13 -173 -25 -215 -62 -215 -13 0
-20 4 -17 10 3 6 2 10 -2 10 -5 0 -23 32 -42 70 -18 39 -37 70 -42 70 -5 0 -8
3 -7 8 4 16 -26 62 -41 63 -12 0 -12 2 3 8 17 7 16 9 -8 24 -18 12 -26 26 -26
47 0 16 -4 32 -10 35 -5 3 -10 15 -10 26 0 11 -7 27 -15 35 -9 10 -12 25 -8
44 4 21 2 30 -7 30 -9 0 -11 9 -7 30 4 16 2 32 -3 35 -10 6 -3 59 12 88 6 12
5 17 -4 17 -8 1 -7 5 5 14 27 21 21 39 -10 32 l-28 -7 21 18 c30 25 43 54 42
91 -1 22 -6 32 -17 32 -12 0 -12 3 -3 12 17 17 15 38 -4 38 -9 0 -14 6 -11 13
3 6 8 20 12 29 5 13 1 20 -16 27 -19 8 -20 10 -6 10 17 1 17 3 -3 31 -12 16
-19 34 -16 39 3 5 -1 14 -8 20 -10 9 -16 9 -21 1 -5 -8 -10 -8 -20 0 -10 8
-16 7 -25 -7 -11 -17 -11 -17 -6 0 3 10 6 23 6 28 0 5 9 9 20 9 14 0 20 7 20
23 0 16 -3 18 -9 8 -12 -18 -94 -26 -88 -9 2 7 13 12 23 10 18 -3 18 -3 -1 12
-11 8 -26 16 -32 16 -7 0 -13 7 -13 15 0 8 -4 15 -10 15 -5 0 -10 5 -10 11 0
5 4 8 9 4 5 -3 12 -1 16 5 3 5 -1 10 -9 10 -15 0 -36 55 -36 98 0 14 -6 22
-17 22 -13 0 -14 3 -5 12 7 7 8 16 2 23 -5 6 -11 27 -13 46 -5 45 -16 69 -44
95 -12 11 -20 23 -17 26 2 3 -1 17 -7 32 -9 19 -15 23 -21 14 -11 -19 -10 -30
4 -22 7 5 8 3 3 -6 -5 -8 -8 -31 -6 -52 3 -64 39 -243 55 -283 17 -40 22 -85
8 -70 -5 6 -24 48 -41 95 -18 47 -37 94 -42 105 -5 11 -20 64 -34 118 -14 53
-30 109 -35 123 -6 14 -10 36 -10 48 0 13 -7 29 -15 36 -13 11 -25 4 -78 -48
-84 -83 -156 -149 -214 -197 -72 -58 -131 -135 -128 -165 1 -14 -4 -35 -12
-48 -7 -12 -11 -28 -7 -34 4 -7 3 -8 -4 -4 -8 5 -12 -4 -12 -28 0 -19 -5 -47
-12 -61 -9 -21 -9 -31 1 -47 7 -12 9 -24 3 -31 -8 -12 -8 -43 2 -217 11 -183
16 -242 22 -268 4 -15 8 -76 10 -135 1 -60 5 -111 8 -115 10 -10 6 -92 -4 -92
-7 0 -7 -6 0 -19 15 -29 12 -68 -6 -75 -14 -5 -14 -9 -3 -23 11 -13 11 -17 2
-20 -7 -3 -13 -10 -13 -16 0 -7 -7 -25 -15 -41 -9 -16 -13 -31 -11 -34 3 -2
-1 -11 -9 -19 -8 -8 -16 -26 -17 -41 -2 -35 -5 -64 -8 -77 -1 -5 -2 -13 -1
-17 0 -5 -4 -8 -10 -8 -5 0 -7 -5 -3 -11 13 -22 15 -89 1 -89 -8 0 -8 -3 2 -9
10 -6 12 -20 8 -45 -5 -33 -4 -36 14 -31 14 5 19 2 19 -14 0 -11 5 -23 10 -26
6 -3 10 -1 10 5 0 8 6 8 20 0 11 -6 20 -21 20 -33 -1 -21 -1 -21 -15 -4 -13
18 -14 17 -30 -12 -9 -18 -12 -37 -8 -44 10 -16 13 -67 3 -67 -4 0 -7 -15 -6
-32 2 -18 -2 -39 -7 -45 -9 -13 -17 -98 -20 -225 -1 -38 -6 -68 -10 -68 -5 0
-7 -6 -4 -12 2 -7 0 -25 -4 -40 -5 -18 -4 -28 3 -28 7 0 6 -6 -2 -15 -7 -8
-11 -34 -8 -60 2 -25 -1 -45 -5 -45 -5 0 -7 -24 -5 -54 1 -30 -1 -52 -6 -49
-4 3 -7 -18 -5 -46 2 -28 1 -51 -3 -51 -5 0 -8 -7 -8 -15 0 -8 5 -15 10 -15 6
0 10 -5 10 -11 0 -5 -4 -8 -10 -4 -5 3 -8 -18 -7 -54 1 -32 -1 -57 -5 -55 -7
5 -16 -165 -9 -172 5 -5 1 -139 -5 -167 -3 -12 -6 -80 -8 -152 -1 -71 -5 -136
-9 -143 -5 -6 -4 -12 0 -12 5 0 8 -24 7 -53 -6 -145 -14 -249 -20 -259 -4 -7
-3 -8 4 -4 7 4 12 3 12 -3 0 -5 -6 -11 -12 -14 -10 -3 -10 -7 1 -20 7 -10 10
-17 5 -17 -5 0 -9 -40 -9 -90 0 -49 3 -90 7 -90 4 0 5 -7 1 -16 -3 -8 -12 -13
-19 -10 -7 3 -18 -3 -23 -12 -12 -20 -12 -22 -14 116 -1 53 -6 92 -12 92 -5 0
-3 5 5 10 12 8 12 10 1 10 -11 0 -11 3 -1 15 10 13 9 15 -11 16 -17 1 -19 3
-6 6 20 5 23 39 3 46 -9 4 -12 14 -9 27 4 17 2 19 -13 13 -18 -7 -18 -6 -1 11
19 20 22 32 7 41 -5 3 -10 13 -10 21 0 10 5 12 13 8 9 -6 9 -4 1 7 -19 24 -24
83 -30 349 -7 341 -8 355 -18 355 -11 0 -24 -41 -32 -95 -3 -19 -10 -38 -17
-42 -9 -6 -9 -8 2 -8 9 0 10 -4 4 -13 -9 -11 -25 -59 -27 -82 -1 -5 -7 -20
-14 -32 -6 -12 -8 -24 -3 -27 5 -3 2 -21 -7 -41 -14 -30 -19 -34 -41 -28 -15
4 -34 7 -43 7 -10 0 -18 5 -19 11 -1 5 -5 -1 -9 -15 l-8 -25 -1 29 c-1 21 -5
27 -17 22 -9 -3 -20 -6 -25 -6 -5 0 -9 -5 -9 -11 0 -5 4 -8 9 -4 11 6 31 -25
31 -47 -1 -8 -6 -6 -15 6 -21 28 -29 13 -17 -33 8 -35 7 -41 -8 -46 -22 -7
-43 -77 -54 -182 -2 -18 -9 -40 -16 -48 -7 -9 -8 -15 -2 -15 12 0 4 -79 -10
-97 -5 -7 -7 -17 -3 -24 4 -6 3 -21 -3 -32 -9 -22 -53 -202 -58 -242 -1 -11
-7 -32 -12 -46 -6 -15 -8 -30 -5 -33 3 -3 1 -11 -4 -18 -6 -7 -11 -28 -11 -46
-1 -26 -15 -158 -27 -247 -4 -34 -18 -78 -31 -104 -8 -14 -14 -33 -14 -42 0
-8 -4 -19 -9 -25 -4 -5 -21 -47 -36 -94 -15 -47 -31 -94 -36 -105 -5 -11 -17
-43 -28 -72 -45 -116 -171 -304 -214 -318 -39 -12 -62 -13 -75 -2 -7 6 -31 10
-52 9 -65 -3 -47 34 38 77 73 37 164 138 216 239 56 109 114 280 151 445 37
169 26 269 -21 182 -10 -19 -24 -35 -30 -35 -6 0 -16 -11 -24 -24 -7 -14 -23
-27 -36 -30 -13 -4 -24 -10 -24 -15 0 -5 -18 -5 -40 -1 -29 5 -40 4 -40 -5 0
-13 -95 -28 -167 -26 -43 1 -171 46 -221 78 -42 27 -146 106 -154 118 -4 5 -8
6 -8 2 0 -5 -10 -1 -21 7 -20 14 -24 13 -50 -14 -18 -18 -27 -34 -23 -44 4
-11 1 -16 -10 -16 -11 0 -16 -9 -16 -26 0 -14 -4 -23 -9 -20 -5 4 -11 1 -13
-6 -3 -7 -5 44 -5 112 0 131 -12 197 -56 300 -38 92 -53 112 -125 180 -51 49
-71 74 -75 100 -9 50 -11 155 -3 168 10 16 -21 59 -46 65 -15 4 -19 11 -15 27
9 36 -2 51 -32 44 -21 -5 -24 -4 -13 7 19 21 14 30 -13 23 -21 -5 -25 -3 -25
15 0 22 -9 25 -70 23 -19 -1 -29 1 -22 4 6 3 12 14 12 24 0 10 10 24 23 33 22
14 36 67 17 67 -6 0 -10 -7 -10 -16 0 -20 -30 -52 -31 -32 0 7 -4 3 -9 -10 -5
-12 -6 -30 -3 -39 5 -12 2 -15 -10 -10 -9 3 -21 -1 -29 -11 -7 -9 -8 -13 -2
-9 7 4 15 0 18 -9 5 -13 1 -15 -24 -12 -35 5 -47 -6 -30 -27 10 -11 10 -15 1
-15 -7 0 -10 -4 -7 -9 4 -5 -3 -7 -14 -4 -15 4 -20 0 -20 -16 0 -11 -4 -21
-10 -21 -5 0 -10 5 -10 10 0 6 -7 10 -16 10 -13 0 -14 -3 -4 -15 10 -11 9 -18
-4 -30 -9 -9 -16 -12 -16 -6 0 6 -7 11 -16 11 -9 0 -14 -7 -12 -17 2 -10 -11
-31 -29 -48 -18 -16 -33 -36 -33 -43 0 -8 -9 -11 -23 -8 -19 3 -27 -3 -42 -30
-22 -41 -82 -63 -123 -45 -20 9 -23 17 -20 41 3 17 1 30 -3 30 -14 0 -16 50
-3 61 8 6 14 17 14 24 0 8 5 15 12 17 7 3 6 12 -6 30 -11 17 -15 35 -10 52 9
38 -2 71 -28 84 -22 10 -22 11 7 12 32 2 28 4 -19 15 -23 5 -27 8 -15 16 11 7
10 9 -6 9 -14 0 -16 3 -7 8 7 5 10 16 6 25 -3 9 -10 14 -15 11 -5 -3 -9 0 -9
5 0 6 -7 11 -15 11 -18 0 -19 62 -4 150 5 30 13 183 18 340 7 245 12 296 30
364 25 90 129 359 188 486 36 77 157 288 172 300 4 3 24 28 46 55 85 107 140
168 174 190 20 13 59 45 87 72 28 26 68 61 88 78 60 50 41 84 -24 41 -22 -14
-49 -26 -60 -26 -11 0 -20 -3 -20 -8 0 -4 -13 -13 -28 -20 -16 -7 -34 -23 -41
-36 -9 -16 -19 -22 -31 -19 -10 3 -51 -11 -89 -31 -39 -20 -76 -36 -81 -36 -6
0 -29 -8 -50 -19 l-39 -19 16 24 c8 13 24 24 34 24 11 0 19 5 19 10 0 14 -40
12 -123 -6 -90 -20 -191 -66 -239 -110 -21 -19 -53 -36 -75 -40 -21 -4 -42
-12 -46 -18 -6 -8 -10 -7 -14 2 -4 10 -8 9 -19 -5 -12 -17 -13 -17 -14 -1 0
26 80 119 139 160 29 20 87 51 129 68 142 57 138 49 41 80 -94 29 -127 47
-216 116 -64 50 -76 51 -157 13 -25 -12 -52 -19 -61 -16 -27 11 -55 83 -55
143 0 45 9 75 41 148 44 96 73 200 84 295 4 31 9 67 12 81 2 14 7 57 10 95 6
75 34 149 68 177 11 10 35 22 54 27 34 10 111 76 111 94 0 14 32 36 52 37 21
0 29 -25 30 -91 0 -46 -11 -73 -91 -233 -95 -188 -124 -273 -137 -404 -3 -39
-3 -91 0 -116 7 -46 7 -46 47 -46 48 0 140 36 206 81 76 51 205 188 237 252
28 56 28 57 12 98 -31 77 11 125 124 140 30 4 56 13 58 18 2 6 14 11 27 11 28
0 68 16 106 42 21 14 28 15 32 5 5 -14 134 -53 143 -44 12 12 38 174 37 232 0
11 -1 72 -2 135 -2 101 13 220 26 206 7 -7 43 27 43 41 0 7 5 22 12 33 10 16
8 28 -11 72 -13 29 -26 64 -28 77 -6 23 -5 23 21 6 14 -10 26 -22 26 -28 0 -6
9 -21 21 -33 11 -12 22 -28 23 -35 5 -30 18 -59 25 -59 7 0 40 -61 87 -165 30
-65 75 -214 89 -294 10 -53 15 -154 16 -280 0 -234 5 -267 39 -284 25 -13 25
-13 25 -152 0 -93 4 -147 13 -162 6 -12 12 -31 12 -42 0 -11 20 -80 44 -153
60 -183 72 -253 53 -309 -34 -101 -39 -128 -25 -164 10 -29 17 -35 40 -35 16
0 38 6 51 12 38 21 217 210 217 230 0 10 6 18 13 18 15 0 53 60 49 78 -2 6 4
12 12 12 19 0 40 98 31 148 -5 30 -2 43 16 62 19 23 21 33 16 105 -3 44 -10
93 -16 108 -6 16 -17 58 -25 95 -8 37 -29 101 -46 142 -18 41 -45 118 -61 170
-16 52 -33 102 -38 110 -5 9 -14 43 -21 75 -6 33 -16 68 -21 78 -5 9 -12 39
-16 65 -3 26 -12 60 -20 76 -16 31 -13 138 4 143 6 2 8 14 6 26 -5 25 41 87
64 87 7 0 17 9 23 20 6 11 20 20 31 20 11 0 19 6 18 13 -3 24 26 77 42 77 19
0 20 28 2 50 -7 8 -39 49 -72 90 -91 115 -326 354 -339 346 -9 -5 -10 -33 -6
-98 5 -67 4 -89 -5 -84 -6 4 -11 22 -11 40 0 18 -3 36 -7 40 -4 3 -8 12 -9 19
-7 44 -29 106 -50 136 -26 39 -188 181 -206 181 -17 0 -108 61 -108 72 0 5
-16 24 -35 42 -19 19 -35 38 -35 44 0 6 -5 12 -11 14 -5 2 -12 17 -13 33 -2
16 -9 31 -15 33 -6 2 -9 7 -6 11 2 5 -7 19 -20 31 -14 13 -25 32 -25 42 0 10
-9 44 -20 75 -25 73 -25 113 1 159 25 45 19 79 -15 88 -33 8 -56 33 -49 52 3
9 25 24 49 35 50 21 55 34 19 51 -14 6 -25 18 -25 27 0 11 3 12 8 4 12 -19
102 -36 118 -22 18 15 19 53 1 46 -18 -7 -47 12 -29 20 6 2 12 11 12 19 0 8 9
14 20 14 16 0 20 -7 21 -37 0 -21 2 -46 4 -55 5 -26 54 -71 71 -64 9 3 17 -1
21 -12 4 -9 27 -36 51 -60 25 -24 41 -47 36 -52 -15 -14 -84 -24 -84 -11 0 6
-7 11 -17 11 -14 0 -14 -2 3 -21 14 -15 15 -20 4 -17 -9 2 -13 -3 -11 -12 9
-35 4 -79 -12 -94 -12 -13 -17 -35 -17 -81 0 -35 4 -66 9 -69 4 -3 11 -24 15
-46 8 -51 34 -93 53 -86 8 3 23 1 34 -4 13 -7 19 -7 19 0 0 13 37 13 45 0 3
-5 1 -10 -4 -10 -8 0 -8 -6 0 -18 17 -27 48 -25 59 4 5 13 14 24 19 24 5 0 14
14 21 30 9 22 17 29 31 25 11 -4 25 2 37 16 27 28 43 16 39 -27 -3 -19 -1 -34
3 -34 4 0 3 -25 -1 -55 -9 -67 1 -108 27 -115 10 -3 21 -14 22 -25 5 -29 8
-30 38 -10 27 17 28 17 44 -2 12 -15 21 -18 38 -12 12 5 22 14 22 20 0 7 3 9
6 6 4 -3 15 -2 25 3 11 6 19 6 21 0 2 -6 8 -6 18 0 13 8 12 10 -2 10 -27 0
-22 13 12 32 17 9 30 13 30 7 0 -6 5 -7 11 -4 7 5 3 14 -10 26 -27 25 -26 33
2 47 21 11 21 11 -5 7 -15 -2 -32 -6 -38 -10 -5 -3 -10 -2 -10 3 0 5 9 12 21
15 13 4 18 10 13 18 -5 8 -3 10 6 4 10 -6 11 -2 6 18 -4 16 -1 29 6 33 7 5 9
2 5 -9 -4 -11 1 -18 16 -23 25 -8 28 -7 25 4 -2 4 -6 6 -10 4 -5 -1 -8 2 -8 6
0 5 14 9 30 9 17 0 30 -4 30 -9 0 -4 7 -8 15 -8 8 0 15 -7 15 -15 0 -8 9 -15
20 -15 12 0 20 -7 20 -16 0 -43 185 -257 218 -252 9 2 17 -1 18 -7 3 -30 17
-45 36 -39 17 5 19 3 13 -14 -8 -26 49 -92 112 -129 l43 -25 20 23 c11 13 19
29 20 35 0 5 8 19 19 30 10 11 26 43 35 72 10 28 22 54 27 58 5 3 7 9 4 14 -3
5 -1 11 5 15 6 4 8 11 5 16 -4 5 1 9 9 9 8 0 17 8 21 19 3 11 15 19 29 19 22
0 23 -4 22 -67 -1 -61 1 -66 22 -69 12 -2 22 -10 22 -18 0 -8 7 -14 15 -14 8
0 15 -5 15 -11 0 -5 -4 -8 -9 -4 -5 3 -12 1 -16 -5 -3 -5 -1 -10 4 -10 6 0 11
-9 11 -20 0 -11 -4 -20 -10 -20 -13 0 -60 -52 -60 -68 0 -7 -4 -10 -10 -7 -5
3 -10 -1 -10 -9 0 -8 -7 -19 -16 -24 -11 -6 -13 -16 -8 -36 6 -27 17 -38 129
-136 98 -87 114 -103 137 -143 23 -40 43 -44 43 -10 0 34 14 38 27 7 16 -39
18 -53 23 -169 2 -59 10 -115 19 -137 11 -25 12 -39 5 -43 -7 -5 -4 -14 7 -26
20 -23 36 -25 28 -4 -5 11 1 15 25 15 19 0 31 5 31 13 0 14 40 37 63 37 12 0
47 34 47 45 0 2 24 29 54 60 30 30 55 63 56 73 0 9 0 34 0 55 -1 38 13 50 24
21 3 -8 11 -12 17 -9 6 4 8 13 5 21 -3 8 2 32 10 54 9 23 14 54 11 73 -20 121
-18 117 -43 111 -18 -5 -23 -2 -23 13 -1 45 -15 85 -37 102 -13 10 -24 26 -24
35 0 14 6 16 35 10 27 -5 36 -3 41 10 3 9 12 16 20 16 8 0 14 8 14 18 0 14 2
15 10 2 7 -12 10 -12 10 -1 0 8 6 11 15 7 9 -3 18 1 21 9 4 8 10 15 16 15 5 0
7 -4 3 -9 -3 -5 -1 -12 4 -16 13 -7 31 27 31 56 0 21 -1 21 -12 6 -11 -15 -13
-10 -12 30 1 27 -1 53 -4 58 -9 14 -12 34 -13 75 -1 19 -7 50 -14 68 -8 17
-12 32 -9 32 2 0 -2 16 -10 35 -19 44 -23 175 -7 201 11 18 11 17 6 -3 -4 -13
-2 -23 3 -23 5 0 12 -20 15 -44 9 -65 49 -147 90 -186 21 -19 37 -39 37 -45 0
-13 54 -55 69 -55 6 0 8 7 5 15 -4 8 -1 15 6 15 7 0 10 7 7 15 -4 8 4 22 18
34 14 10 25 22 25 26 0 4 11 16 25 27 14 11 25 26 25 34 0 8 10 14 25 14 24 0
25 -3 23 -45 -2 -25 -6 -45 -10 -45 -5 0 -8 -9 -8 -20 0 -25 28 -26 46 -2 7 9
14 29 14 44 0 19 4 26 14 22 11 -4 46 48 46 71 0 3 11 21 25 39 14 18 25 41
25 50 0 9 4 15 9 12 12 -8 22 20 15 39 -4 10 0 15 11 15 11 0 15 6 11 18 -3 9
-2 33 3 52 4 19 4 44 1 55 -4 11 -13 38 -20 60 -7 22 -32 86 -57 143 -47 109
-143 393 -143 423 0 10 -4 20 -9 23 -4 3 -11 20 -15 38 -25 124 -157 271 -304
340 -81 38 -122 68 -122 91 0 6 5 6 13 0 6 -6 37 -18 67 -28 30 -10 67 -25 82
-33 25 -15 28 -14 47 9 21 24 28 44 13 35 -5 -3 -10 9 -10 27 -1 18 -5 46 -8
62 -4 17 -7 48 -9 70 -4 67 -17 105 -37 116 -10 5 -42 34 -71 63 -29 29 -60
55 -69 59 -19 7 -25 27 -8 27 6 0 10 -4 10 -10z m1463 -299 c19 -1 26 -5 21
-13 -4 -7 -3 -8 4 -4 7 4 18 4 24 0 13 -9 20 -10 83 -20 42 -7 102 -44 71 -44
-9 0 -15 -3 -15 -7 3 -21 -2 -26 -12 -13 -8 11 -12 12 -16 3 -4 -10 -9 -10
-26 2 -18 13 -22 12 -33 -4 -17 -24 -54 -34 -54 -15 0 11 -31 20 -42 12 -2 -1
-14 5 -28 12 -14 7 -36 14 -50 16 -14 1 -56 5 -95 8 -124 11 -135 13 -141 19
-3 3 -13 3 -22 -1 -14 -5 -15 -3 -4 10 11 14 49 22 162 35 25 3 47 6 49 8 2 2
24 2 50 0 25 -2 59 -4 74 -4z m-4052 -311 c-6 -69 -14 -153 -17 -188 -4 -45
-2 -67 7 -79 8 -10 9 -14 2 -10 -6 4 -14 3 -17 -2 -4 -5 -2 -12 2 -15 13 -8 6
-57 -10 -67 -10 -7 -10 -9 0 -9 6 0 12 -5 12 -11 0 -5 -5 -7 -12 -3 -8 5 -9 2
-3 -12 4 -10 7 -27 7 -36 -1 -27 25 -36 118 -42 115 -9 122 -23 9 -18 -63 3
-99 0 -118 -9 -14 -7 -27 -14 -28 -14 -7 -4 -43 -162 -57 -250 -24 -154 -35
-295 -37 -470 -2 -131 -6 -176 -26 -252 -13 -50 -22 -110 -21 -134 4 -51 -11
-59 -35 -19 -10 17 -23 27 -29 24 -7 -4 -8 1 -3 16 6 19 4 22 -10 16 -14 -5
-16 -2 -12 13 5 21 -15 31 -67 31 l-29 0 20 23 c17 17 22 39 26 106 3 46 10
87 17 91 6 4 10 11 9 16 -3 11 32 84 41 84 3 0 6 8 7 18 1 9 4 31 8 47 3 17 8
50 10 75 2 25 7 59 10 75 3 17 6 100 6 185 1 102 5 158 13 162 7 5 4 8 -6 8
-14 0 -18 9 -18 40 0 22 -3 39 -7 39 -25 -4 -41 3 -46 21 -8 31 -21 24 -56
-27 -18 -27 -48 -70 -67 -98 -19 -27 -34 -57 -34 -67 0 -9 -12 -26 -26 -37
-15 -12 -23 -21 -18 -21 5 -1 -7 -7 -26 -13 -19 -7 -63 -34 -98 -60 -88 -65
-150 -73 -174 -24 -4 9 -12 25 -16 35 -5 9 -20 23 -34 29 -49 24 -61 110 -21
138 30 21 106 22 137 2 30 -20 68 -22 99 -6 72 38 188 135 224 187 106 153
136 237 138 377 1 129 10 166 39 161 15 -2 23 -12 27 -37 3 -19 12 -45 19 -59
8 -14 15 -29 16 -35 0 -5 2 -16 2 -22 1 -7 8 -13 16 -13 8 0 17 -8 20 -17 6
-15 8 -15 16 -3 6 9 4 20 -3 29 -9 12 -9 13 1 7 8 -5 12 -1 12 13 0 11 5 23
10 26 6 3 10 15 10 26 0 10 5 19 11 19 6 0 9 9 6 20 -3 11 -1 22 4 25 4 3 6
12 2 20 -3 9 2 30 10 48 8 17 21 59 28 92 l14 60 3 -50 c2 -27 -1 -106 -7
-175z m2456 138 c-3 -10 -2 -18 2 -18 4 0 7 -20 7 -45 -1 -33 -5 -44 -14 -40
-8 3 -16 5 -18 5 -3 0 -9 12 -15 28 -17 41 -28 92 -20 92 4 0 15 15 26 32 l19
33 9 -34 c4 -19 6 -43 4 -53z m1783 -92 c0 -3 -4 -8 -10 -11 -5 -3 -10 -1 -10
4 0 6 5 11 10 11 6 0 10 -2 10 -4z m-20 -34 c0 -4 -4 -21 -9 -39 -6 -21 -5
-35 2 -42 8 -8 8 -11 -1 -11 -18 0 -15 -13 9 -39 18 -19 20 -30 14 -77 -9 -76
-31 -95 -99 -87 -28 3 -54 11 -58 16 -7 11 27 112 44 134 6 7 8 20 4 28 -3 8
-1 15 4 15 5 0 20 25 35 55 14 30 32 55 40 55 8 0 15 -3 15 -8z m-2326 -490
c-43 -113 -194 -332 -229 -332 -7 0 -19 -13 -26 -28 -8 -16 -17 -30 -21 -30
-5 -1 -8 -5 -7 -9 0 -5 -10 -11 -23 -14 -13 -3 -22 -12 -20 -19 2 -9 -5 -10
-25 -5 -15 5 -51 8 -78 8 l-51 -1 1 49 c0 42 -5 55 -32 84 -22 25 -27 35 -16
35 10 0 13 6 9 16 -3 8 1 26 10 40 10 15 12 24 5 24 -6 0 -11 -4 -11 -10 0 -5
-7 -10 -15 -10 -9 0 -12 -6 -9 -15 4 -9 0 -15 -7 -15 -11 0 -11 -3 1 -10 12
-8 9 -10 -12 -10 -16 0 -28 4 -28 9 0 5 -22 12 -50 16 -27 4 -50 11 -50 15 0
8 33 23 55 26 6 0 27 5 47 11 22 7 51 8 72 3 45 -10 81 12 71 44 -4 11 -8 28
-9 36 -1 9 -5 20 -8 26 -4 6 -9 22 -12 37 -4 24 -1 27 22 28 66 2 140 -3 172
-11 46 -12 83 -14 153 -6 39 5 56 3 52 -4 -3 -5 -2 -10 2 -10 12 0 39 33 59
72 24 46 30 17 8 -40z m-3396 23 c15 -14 43 -30 63 -35 63 -17 73 -37 66 -137
-12 -159 -20 -223 -29 -229 -16 -10 -20 3 -24 83 -8 150 -12 169 -45 224 -18
30 -41 60 -51 67 -16 12 -26 52 -13 52 3 0 18 -11 33 -25z m2006 -101 c11 -27
7 -37 -9 -24 -16 14 -20 40 -6 40 5 0 12 -7 15 -16z m1673 -26 c-3 -8 -6 -5
-6 6 -1 11 2 17 5 13 3 -3 4 -12 1 -19z m22 -68 c0 -9 -4 -8 -9 5 -5 11 -9 27
-9 35 0 9 4 8 9 -5 5 -11 9 -27 9 -35z m-48 -431 c-15 -57 -19 -157 -9 -214
14 -76 51 -145 77 -145 13 0 21 -27 15 -45 -9 -22 -19 -19 -34 10 -9 17 -16
21 -21 14 -4 -7 -5 -18 -2 -26 3 -7 0 -13 -6 -13 -6 0 -11 -5 -11 -11 0 -5 5
-7 11 -3 8 5 9 -14 4 -67 -5 -41 -8 -84 -7 -96 1 -14 -4 -23 -12 -23 -17 0
-61 133 -52 156 3 9 1 69 -5 134 -7 82 -7 124 0 138 7 12 7 22 0 29 -6 6 -6
19 -1 34 5 13 7 44 5 69 -4 35 1 57 24 102 36 72 49 49 24 -43z m-1893 -534
c-3 -3 -9 2 -12 12 -6 14 -5 15 5 6 7 -7 10 -15 7 -18z m22 -25 c0 -5 -2 -10
-4 -10 -3 0 -8 5 -11 10 -3 6 -1 10 4 10 6 0 11 -4 11 -10z m2215 0 c-3 -5
-11 -10 -16 -10 -6 0 -7 5 -4 10 3 6 11 10 16 10 6 0 7 -4 4 -10z m-6798 -352
c39 -42 47 -58 67 -141 18 -71 15 -110 -9 -101 -18 7 -34 -53 -33 -129 0 -32
-2 -61 -6 -64 -3 -4 -17 4 -30 16 l-24 23 -12 -22 c-6 -12 -14 -72 -18 -133
-8 -153 -20 -95 -26 128 -2 94 -7 182 -11 198 -5 17 -3 27 4 27 17 0 13 40 -4
47 -9 3 -23 -1 -33 -9 -21 -18 -56 -12 -48 9 3 8 9 45 12 82 5 51 11 71 25 79
16 10 20 8 25 -12 4 -16 13 -23 29 -23 15 0 22 4 18 13 -5 14 16 43 33 44 5 0
24 -15 41 -32z m4463 -468 c0 -5 -4 -10 -10 -10 -5 0 -10 5 -10 10 0 6 5 10
10 10 6 0 10 -4 10 -10z m-4659 -66 c7 -9 14 -25 14 -37 1 -11 7 -23 13 -25 7
-2 12 -10 12 -18 0 -8 4 -14 10 -14 5 0 7 -7 4 -15 -4 -10 0 -15 12 -16 11 0
14 -3 8 -5 -9 -4 -8 -14 3 -35 9 -17 19 -64 24 -104 18 -167 93 -397 165 -505
19 -30 47 -75 62 -100 32 -57 121 -177 185 -252 55 -65 133 -123 140 -105 3 9
9 9 24 0 11 -6 82 -27 157 -47 166 -43 257 -88 418 -208 124 -92 174 -126 245
-163 49 -27 251 -75 311 -75 52 0 264 -37 299 -52 50 -21 124 -80 134 -106 14
-37 3 -58 -49 -88 -60 -35 -98 -71 -79 -76 8 -2 11 -11 8 -26 -6 -21 -10 -19
-68 35 -110 102 -135 123 -143 118 -4 -3 -13 2 -20 10 -7 8 -16 12 -22 9 -5
-3 -15 0 -23 6 -8 7 -15 9 -15 4 0 -5 -6 -2 -13 7 -7 9 -21 16 -32 17 -24 1
-66 -18 -60 -28 7 -12 -33 -4 -49 10 -21 17 -30 7 -17 -18 6 -12 11 -28 11
-36 0 -25 -32 -2 -104 72 -34 35 -74 69 -91 76 -108 47 -168 70 -178 68 -4 -1
-41 14 -82 34 -41 20 -80 32 -86 28 -8 -4 -9 -3 -5 4 6 11 -8 17 -58 24 -30 5
-28 -32 4 -63 15 -16 34 -42 42 -59 7 -16 16 -30 20 -30 21 0 48 -43 48 -75 0
-28 -4 -35 -19 -35 -11 0 -23 5 -26 10 -13 21 -27 9 -20 -17 10 -40 49 -123
57 -123 5 0 8 -4 8 -10 0 -5 15 -33 33 -62 19 -29 50 -91 70 -138 38 -92 107
-301 107 -325 0 -8 5 -15 10 -15 6 0 10 -12 9 -27 -1 -16 1 -40 5 -54 5 -16 3
-29 -3 -33 -6 -4 -11 -15 -10 -24 0 -14 2 -13 9 3 7 16 9 17 9 3 1 -9 -3 -19
-7 -22 -5 -3 -9 -18 -10 -33 -2 -36 -36 -126 -45 -117 -4 4 -7 -5 -7 -20 0
-14 -7 -29 -15 -32 -8 -4 -15 -13 -15 -21 0 -8 -4 -11 -10 -8 -5 3 -10 1 -10
-4 0 -6 -9 -11 -20 -11 -11 0 -20 -5 -20 -11 0 -5 -4 -8 -8 -5 -15 9 -1 66 15
66 11 0 13 7 9 26 -4 15 -2 32 5 40 8 10 8 14 0 14 -6 0 -11 9 -11 20 0 11 7
20 15 20 8 0 15 7 15 16 0 8 -4 12 -10 9 -12 -8 -13 7 -1 21 4 5 11 23 14 41
5 23 2 33 -10 37 -9 4 -17 5 -18 4 -13 -16 -25 -52 -25 -73 0 -14 -6 -28 -14
-31 -7 -3 -24 -26 -37 -52 -13 -26 -27 -50 -31 -53 -4 -3 -9 -17 -10 -32 -1
-15 -6 -27 -9 -27 -4 0 -10 -13 -14 -29 -5 -23 -1 -35 17 -53 13 -13 27 -22
32 -20 5 2 6 -4 3 -12 -3 -8 -3 -17 1 -21 4 -3 7 -19 8 -35 1 -16 5 -37 9 -47
4 -10 9 -35 9 -56 2 -47 23 -68 54 -56 20 7 29 37 23 72 -2 10 18 84 30 112 4
11 19 47 33 80 28 68 69 147 96 185 27 38 80 142 80 157 0 7 4 21 9 31 30 58
64 165 63 201 0 14 4 28 8 31 11 7 19 110 8 116 -16 10 20 33 58 36 32 3 40
-1 51 -22 19 -38 15 -115 -12 -220 -24 -95 -138 -456 -176 -560 -38 -102 -152
-365 -161 -368 -4 -2 -8 -10 -8 -18 0 -8 -5 -14 -11 -14 -8 0 -8 -4 -1 -12 12
-15 13 -68 1 -68 -4 0 -11 -16 -15 -35 -3 -20 -13 -37 -24 -40 -9 -3 -22 -17
-28 -30 -14 -30 -38 -32 -45 -4 -3 12 -10 18 -16 14 -7 -3 -11 3 -11 15 0 12
-4 18 -10 15 -5 -3 -10 -1 -10 4 0 6 -6 11 -14 11 -8 0 -17 6 -20 13 -3 8 -8
7 -16 -5 -9 -14 -14 -15 -24 -6 -8 7 -11 19 -9 25 3 7 0 13 -7 13 -6 0 -10
-10 -8 -22 2 -11 -3 -23 -11 -26 -8 -3 -11 0 -7 7 4 6 0 11 -9 11 -9 0 -14 -4
-10 -9 3 -6 -4 -15 -15 -21 -11 -6 -20 -19 -20 -28 0 -10 -10 -33 -23 -52 -33
-50 -57 -100 -57 -122 0 -10 -3 -18 -8 -18 -4 0 -15 -21 -24 -47 -19 -53 -114
-203 -129 -203 -5 0 -9 -4 -9 -10 0 -5 -8 -18 -17 -28 -44 -46 -63 -74 -63
-92 0 -11 -4 -20 -9 -20 -5 0 -13 -14 -16 -32 -8 -34 -14 -43 -64 -96 -36 -39
-77 -142 -60 -153 6 -3 4 -11 -6 -19 -9 -8 -15 -29 -15 -56 0 -24 -4 -44 -9
-44 -7 0 -39 -89 -67 -187 -2 -7 -11 -13 -19 -13 -11 0 -15 -6 -11 -17 3 -10
1 -25 -4 -33 -7 -11 -10 -11 -10 -2 0 7 -5 10 -11 6 -6 -3 -9 -15 -6 -25 4
-14 0 -19 -14 -19 -20 0 -26 16 -9 22 7 2 6 17 -3 43 -8 22 -11 49 -7 60 4 11
5 26 2 34 -3 8 -1 12 4 8 6 -3 16 15 24 41 7 26 19 58 27 72 7 14 13 35 13 47
0 12 5 25 10 28 6 4 8 15 5 26 -4 12 -2 19 7 19 9 0 13 17 14 57 1 32 2 101 4
153 2 52 1 111 -3 130 -3 19 -9 67 -11 105 -3 39 -8 95 -11 125 -4 30 -2 114
3 186 10 128 31 202 70 242 6 7 12 18 12 23 0 6 5 7 10 4 6 -3 10 -2 10 4 0 5
16 15 35 22 19 7 37 21 41 31 3 9 17 23 32 30 15 7 28 22 31 33 2 11 8 23 15
27 7 5 7 8 -3 8 -10 0 -11 4 -3 13 13 15 42 93 47 124 2 12 7 28 11 35 5 7 9
18 9 23 1 6 7 24 14 40 31 71 41 96 41 104 0 5 10 30 22 57 12 27 21 53 20 58
-2 4 4 19 13 32 9 14 13 29 10 33 -3 5 -2 11 3 13 11 4 53 115 59 156 3 17 9
32 13 32 4 0 10 32 13 71 3 39 10 76 15 82 6 7 11 44 11 82 1 39 3 85 5 103 1
18 0 35 -4 37 -4 3 -8 25 -8 49 -2 62 -32 159 -72 229 -5 9 -15 25 -20 35 -6
9 -14 26 -19 37 -20 45 -174 292 -196 314 -20 21 -32 24 -78 22 -58 -2 -147
16 -147 30 0 4 -8 10 -17 13 -10 3 -36 22 -58 42 -22 20 -49 44 -60 53 -11 9
-26 26 -33 36 -6 11 -25 40 -42 65 -16 25 -35 66 -42 93 -6 26 -14 47 -17 47
-3 0 -6 26 -6 58 0 39 -4 59 -14 63 -7 3 -19 21 -26 40 -7 18 -25 68 -40 109
-15 41 -32 80 -36 86 -5 6 -6 19 -3 28 4 12 -11 35 -50 76 -34 36 -56 67 -56
82 -1 26 -21 58 -38 58 -17 0 -24 55 -17 122 4 35 9 79 11 98 2 19 6 55 10 80
4 25 6 86 6 136 -1 85 1 93 24 113 14 12 22 26 19 31 -10 16 12 11 26 -6z
m7469 -138 c0 -3 -4 -8 -10 -11 -5 -3 -10 -1 -10 4 0 6 5 11 10 11 6 0 10 -2
10 -4z m60 -40 c0 -8 -7 -16 -15 -20 -12 -4 -13 -2 -2 14 14 24 17 25 17 6z
m-13 -42 c-3 -3 -12 -4 -19 -1 -8 3 -5 6 6 6 11 1 17 -2 13 -5z m-82 -33 c3
-5 1 -12 -5 -16 -5 -3 -10 1 -10 9 0 18 6 21 15 7z m-7528 -353 c-3 -8 -6 -5
-6 6 -1 11 2 17 5 13 3 -3 4 -12 1 -19z m7721 -16 c2 -7 -1 -12 -8 -12 -6 0
-9 4 -6 9 4 5 1 12 -4 14 -6 3 -5 4 2 3 6 -1 14 -8 16 -14z m-2051 -459 c-8
-15 -20 -47 -26 -71 -10 -37 -14 -41 -31 -32 -16 8 -17 15 -9 42 17 61 29 83
52 93 28 13 32 4 14 -32z m-3352 -62 c-2 -5 3 -17 11 -27 9 -10 13 -13 9 -6
-3 6 -2 12 3 12 6 0 13 -7 16 -16 3 -8 10 -12 16 -9 16 10 12 -15 -5 -32 -9
-8 -13 -23 -10 -33 15 -49 -135 -76 -260 -46 -63 14 -64 30 -5 73 25 17 60 44
78 59 41 34 112 42 112 13 0 -11 5 -19 11 -19 5 0 9 8 8 18 -2 27 0 34 11 27
6 -4 8 -10 5 -14z m5365 -671 c15 -256 20 -303 30 -320 11 -18 9 -21 49 75 54
128 150 322 167 336 14 12 15 8 8 -37 -10 -70 -46 -169 -119 -324 -34 -74 -68
-160 -74 -191 -18 -88 -7 -508 19 -698 26 -193 51 -260 175 -466 84 -140 133
-247 142 -312 6 -41 -16 -33 -57 19 -22 29 -49 62 -60 73 -11 12 -20 24 -20
28 0 7 -8 19 -36 50 -6 7 -19 27 -27 44 -9 17 -24 39 -34 49 -10 9 -18 22 -19
28 0 6 -2 17 -2 24 -1 6 -8 12 -16 12 -13 0 -32 36 -39 75 -2 11 -9 34 -16 50
-45 115 -68 204 -96 375 -30 183 -33 375 -10 551 15 111 18 302 11 622 -2 76
0 135 5 130 4 -4 13 -91 19 -193z m-790 159 c0 -5 -4 -9 -10 -9 -5 0 -10 7
-10 16 0 8 5 12 10 9 6 -3 10 -10 10 -16z m-5645 -119 c3 -5 1 -10 -4 -10 -6
0 -11 5 -11 10 0 6 2 10 4 10 3 0 8 -4 11 -10z m7346 -394 c-7 -8 -10 -20 -6
-26 3 -5 1 -10 -5 -10 -20 0 -24 32 -5 46 23 17 32 10 16 -10z m-6856 -46 c3
-5 1 -10 -4 -10 -6 0 -11 5 -11 10 0 6 2 10 4 10 3 0 8 -4 11 -10z m6825 -27
c0 -21 -3 -24 -9 -14 -5 8 -7 20 -4 28 8 21 13 15 13 -14z m27 5 c-3 -8 -6 -5
-6 6 -1 11 2 17 5 13 3 -3 4 -12 1 -19z m-3937 -972 c0 -11 -19 -15 -25 -6 -3
5 1 10 9 10 9 0 16 -2 16 -4z m-110 -36 c0 -5 -4 -10 -10 -10 -5 0 -10 5 -10
10 0 6 5 10 10 10 6 0 10 -4 10 -10z m205 -40 c-5 -8 -11 -8 -17 -2 -6 6 -7
16 -3 22 5 8 11 8 17 2 6 -6 7 -16 3 -22z m-468 -182 c-3 -8 -6 -5 -6 6 -1 11
2 17 5 13 3 -3 4 -12 1 -19z m-190 -30 c-3 -8 -6 -5 -6 6 -1 11 2 17 5 13 3
-3 4 -12 1 -19z m-1512 -259 c-30 -178 -36 -274 -17 -274 7 0 17 -6 21 -14 5
-7 13 -11 19 -7 14 9 -3 -55 -33 -119 -46 -101 -58 -129 -82 -198 -13 -39 -31
-84 -40 -100 -38 -74 -63 -225 -63 -379 0 -149 31 -250 99 -318 22 -22 44 -40
49 -40 5 0 14 -11 21 -24 18 -33 124 -107 230 -160 125 -63 150 -102 117 -179
-30 -70 -166 -165 -316 -222 -277 -105 -421 -16 -480 298 -55 292 -62 410 -36
587 25 166 30 247 15 255 -9 6 -11 3 -6 -8 5 -12 1 -17 -13 -17 -13 0 -20 -7
-20 -19 0 -15 -5 -18 -22 -13 -16 4 -20 2 -15 -10 8 -22 -2 -29 -24 -18 -22
12 -58 2 -38 -11 25 -15 3 -18 -35 -5 -23 8 -33 16 -25 18 9 4 3 8 -13 13 -16
4 -28 10 -28 13 0 9 52 75 92 117 21 22 38 43 38 47 0 5 7 8 15 8 8 0 15 5 15
10 0 6 29 41 64 78 107 113 117 125 148 177 16 28 40 65 54 84 29 41 32 103 7
130 -20 21 -182 82 -293 111 -117 31 -113 44 10 35 121 -9 182 -7 190 4 5 8
18 12 108 31 46 10 102 39 102 52 0 4 6 8 14 8 20 0 91 83 104 122 l12 33 -5
-31 c-9 -66 22 -46 48 31 10 27 21 74 25 105 l7 55 3 -51 c2 -28 -9 -120 -23
-205z m1555 231 c0 -5 -7 -10 -15 -10 -7 0 -18 -6 -22 -14 -4 -8 -17 -16 -28
-19 -18 -4 -18 -5 3 -6 24 -1 31 -21 7 -21 -23 0 -30 -28 -11 -49 15 -16 15
-19 1 -31 -8 -7 -15 -21 -15 -31 0 -20 -20 -37 -20 -17 0 7 -8 1 -18 -14 -9
-16 -22 -28 -29 -28 -7 0 -13 -4 -13 -10 0 -14 -67 -40 -93 -36 -12 2 -35 -1
-51 -7 -20 -7 -30 -6 -35 2 -4 6 -28 13 -54 15 -26 3 -45 1 -43 -3 3 -4 -6
-14 -19 -21 -13 -7 -22 -16 -20 -20 3 -4 -2 -13 -10 -20 -8 -7 -15 -19 -15
-26 0 -8 -3 -14 -8 -14 -8 0 -7 2 -85 -227 -30 -90 -52 -163 -50 -163 3 0 -1
-10 -10 -23 -8 -12 -18 -38 -22 -57 -4 -19 -13 -42 -20 -50 -17 -20 -8 -83 11
-76 8 3 14 1 14 -4 0 -6 -4 -10 -10 -10 -5 0 -10 -4 -10 -10 0 -5 7 -10 15
-10 8 0 15 5 15 10 0 19 19 10 26 -12 4 -13 11 -26 16 -29 5 -3 10 -21 11 -40
1 -19 15 -58 30 -87 16 -31 22 -51 15 -50 -9 2 -12 -9 -11 -37 1 -30 -1 -35
-7 -20 -8 19 -9 19 -9 -2 -1 -13 -7 -23 -16 -23 -8 0 -12 -6 -9 -13 3 -8 -2
-20 -11 -27 -10 -8 -15 -9 -15 -1 0 6 5 11 11 11 5 0 7 5 4 10 -10 17 -25 1
-25 -26 0 -14 -4 -23 -8 -20 -12 7 -39 -27 -34 -42 2 -7 -1 -12 -7 -12 -6 0
-11 -9 -11 -20 0 -11 -9 -29 -20 -40 -11 -11 -16 -20 -10 -20 5 0 3 -13 -5
-30 -8 -17 -22 -44 -30 -61 -8 -17 -13 -35 -10 -40 3 -4 -1 -22 -10 -39 -13
-26 -24 -97 -26 -180 -2 -41 11 -209 17 -223 10 -28 -3 -192 -18 -223 -9 -16
-18 -41 -22 -56 -3 -16 -11 -28 -17 -28 -8 0 -7 -5 1 -15 10 -12 10 -15 -3
-15 -8 0 -18 -12 -22 -27 -4 -17 -9 -23 -14 -15 -4 7 -12 -7 -19 -34 -7 -25
-10 -49 -7 -54 3 -4 -2 -13 -10 -20 -19 -16 -19 -59 0 -66 8 -3 32 -6 52 -7
33 -1 55 2 133 17 24 5 54 19 60 28 3 4 16 9 28 11 12 2 25 6 28 10 4 4 12 7
18 7 12 0 -75 -79 -87 -80 -5 0 -15 -7 -23 -15 -9 -8 -27 -17 -42 -21 -15 -3
-34 -9 -43 -14 -31 -17 -134 -29 -209 -26 -78 4 -239 24 -252 32 -3 2 -41 5
-84 5 -43 1 -89 5 -103 11 -14 5 -53 12 -86 15 -92 8 -153 45 -114 69 8 5 8 9
-1 14 -31 19 89 122 156 136 18 3 46 -1 69 -10 21 -9 48 -13 59 -10 33 10 160
129 212 197 57 76 96 152 130 254 25 75 26 84 25 311 -2 322 26 472 135 718
156 355 228 526 269 642 25 70 53 146 61 169 29 81 124 185 124 137 0 -8 6
-13 13 -11 6 1 11 -4 10 -10 -3 -13 8 -17 40 -13 10 1 24 -3 30 -8 22 -17 95
-21 108 -6 7 8 18 13 26 10 7 -3 13 -1 13 4 0 6 13 10 28 10 15 0 34 6 40 12
7 7 19 13 27 13 8 0 15 5 14 10 0 6 10 13 23 17 35 9 48 9 48 -2z m60 4 c0 -9
-28 -34 -38 -34 -6 0 -12 -7 -16 -15 -3 -8 -12 -12 -21 -9 -14 6 -14 8 1 25 9
11 25 19 36 19 10 0 18 5 18 10 0 6 5 10 10 10 6 0 10 -3 10 -6z m30 -4 c0 -5
-4 -10 -10 -10 -5 0 -10 5 -10 10 0 6 5 10 10 10 6 0 10 -4 10 -10z m-2740
-41 c0 -17 -20 -49 -30 -49 -14 0 -12 28 3 45 14 17 27 19 27 4z m2620 -59 c0
-5 -7 -10 -15 -10 -8 0 -15 5 -15 10 0 6 7 10 15 10 8 0 15 -4 15 -10z m4338
-23 c11 4 12 1 3 -16 -10 -17 -9 -21 4 -21 8 0 15 5 15 10 0 6 7 10 15 10 8 0
15 -9 15 -19 0 -11 4 -22 9 -25 5 -3 7 -30 5 -59 -3 -28 -6 -72 -8 -97 -2 -25
-6 -54 -9 -65 -14 -45 -47 -264 -47 -313 0 -68 17 -184 36 -242 25 -73 79
-162 160 -261 43 -52 92 -125 110 -164 46 -98 94 -333 109 -540 3 -44 8 -97
10 -117 8 -67 -15 -36 -39 54 -9 29 -27 94 -41 143 -14 50 -30 113 -36 140
-18 80 -88 234 -146 319 -29 43 -53 80 -53 82 0 8 -65 109 -72 112 -4 2 -8 9
-8 17 0 7 -7 18 -15 25 -9 7 -13 15 -11 18 3 3 -3 17 -14 32 -11 15 -21 38
-22 51 -2 13 -6 26 -10 29 -19 14 -63 235 -60 300 0 8 3 71 6 140 4 69 7 139
6 157 0 17 3 34 8 37 5 3 6 28 2 55 -3 27 -3 48 0 46 4 -2 6 12 6 30 -1 19 -4
35 -8 35 -11 0 4 44 21 60 9 8 14 14 12 13 -1 -1 -9 3 -16 10 -9 9 -9 16 -1
29 10 16 12 16 31 -1 11 -10 26 -16 33 -14z m926 -203 c9 -24 7 -69 -3 -58
-12 13 -22 74 -12 74 5 0 12 -7 15 -16z m-8094 -210 c0 -13 -5 -23 -12 -21 -7
1 -12 -17 -13 -53 -1 -30 -10 -77 -20 -105 -20 -57 -61 -141 -72 -148 -24 -15
-2 135 24 164 8 9 15 27 15 40 1 13 10 37 21 52 11 16 17 38 15 52 -3 14 -2
22 3 20 4 -3 10 4 14 15 8 26 25 16 25 -16z m5335 -124 c3 -5 1 -10 -4 -10 -6
0 -11 5 -11 10 0 6 2 10 4 10 3 0 8 -4 11 -10z m16 -42 c1 -7 1 -19 0 -25 -1
-7 6 -13 16 -13 10 0 14 -4 8 -8 -14 -10 -17 -32 -4 -32 5 0 7 -4 4 -10 -3 -5
2 -22 12 -37 10 -15 17 -30 17 -33 -5 -19 44 -118 113 -231 54 -87 65 -117 39
-102 -23 13 -135 171 -152 213 -9 22 -20 40 -25 40 -5 0 -8 3 -7 8 1 4 -5 23
-14 43 -15 33 -28 83 -33 119 -1 8 -6 24 -10 34 -6 13 -4 21 3 24 7 2 10 8 6
13 -3 5 2 9 10 9 9 0 17 -6 17 -12z m-3157 -213 c-4 -8 -13 -15 -21 -15 -13 0
-13 3 -3 15 7 8 16 15 21 15 5 0 6 -7 3 -15z m2744 -32 c34 -14 44 -27 86
-117 59 -125 58 -151 -6 -247 -51 -75 -57 -104 -59 -300 -1 -64 -7 -154 -14
-200 -7 -46 -16 -120 -20 -164 -10 -123 -25 -194 -40 -189 -19 8 -58 111 -56
148 1 17 3 47 6 66 2 19 4 103 3 185 0 184 1 388 3 395 0 3 0 19 0 35 -1 17 9
62 21 101 13 39 22 89 21 110 -14 216 -16 208 55 177z m-4378 -257 c0 -3 -4
-8 -10 -11 -5 -3 -10 -1 -10 4 0 6 5 11 10 11 6 0 10 -2 10 -4z m3309 -73 c5
-17 6 -34 3 -38 -4 -4 -7 -14 -7 -22 0 -33 -20 -22 -23 13 -1 19 -7 45 -13 56
-10 18 -9 20 5 15 14 -6 15 -3 5 16 -10 20 -10 21 5 7 9 -9 20 -30 25 -47z
m-2479 -117 c0 -8 -6 -16 -14 -19 -10 -4 -12 0 -9 14 6 22 23 26 23 5z m-36
-78 c-10 -36 -26 -58 -20 -28 3 14 6 31 6 38 0 6 5 12 11 12 6 0 8 -9 3 -22z
m2575 -57 c26 -36 26 -40 -1 -33 -14 3 -19 2 -14 -6 4 -7 3 -12 -2 -12 -13 0
-35 56 -27 69 10 18 22 13 44 -18z m-3286 -213 c23 -51 26 -64 18 -77 -12 -19
-28 8 -36 62 -8 55 -2 60 18 15z m-1455 -118 c2 -13 11 -30 19 -38 11 -11 13
-26 9 -55 -4 -24 -3 -43 3 -47 6 -3 11 -21 13 -39 3 -38 39 -61 64 -40 25 20
16 -41 -13 -96 -23 -43 -27 -63 -29 -150 -2 -75 -5 -100 -15 -100 -19 0 -24
36 -7 46 10 7 9 9 -4 9 -9 0 -20 9 -23 20 -9 30 -28 24 -68 -20 -22 -25 -41
-38 -50 -34 -9 3 -29 -2 -46 -10 -30 -16 -77 -23 -55 -8 6 4 19 22 28 40 9 17
20 32 25 32 4 0 26 17 49 38 57 51 77 116 77 249 0 62 4 103 10 103 6 0 5 3
-1 8 -6 4 -14 17 -18 30 -6 16 -3 22 8 22 13 0 14 5 6 26 -13 34 -13 46 3 42
6 -3 14 -15 15 -28z m1312 -125 c-13 -15 -8 -19 23 -16 9 1 17 -4 17 -13 0 -8
10 -22 22 -30 12 -9 19 -16 15 -16 -4 0 5 -18 19 -40 15 -22 27 -55 28 -73 1
-17 9 -40 19 -50 10 -10 15 -22 12 -27 -4 -6 -3 -16 2 -22 11 -17 13 -98 3
-98 -4 0 -6 -9 -3 -20 3 -11 10 -20 15 -20 6 0 6 -6 -1 -14 -8 -9 -8 -16 -2
-20 6 -4 8 -12 5 -20 -3 -7 0 -25 6 -40 6 -18 6 -25 0 -21 -6 4 -13 -7 -16
-25 -4 -17 -11 -33 -16 -36 -5 -3 -2 -15 8 -25 19 -21 11 -40 -8 -21 -9 9 -16
8 -30 -5 -18 -16 -19 -16 -9 9 11 29 -5 43 -35 31 -10 -4 -15 -1 -14 8 5 32
-1 49 -17 50 -10 0 -13 3 -7 5 16 7 5 54 -11 48 -7 -3 -16 0 -21 7 -4 7 -3 14
4 17 7 2 4 14 -10 33 -16 21 -24 26 -31 17 -5 -9 -7 -3 -4 15 3 19 0 27 -10
27 -9 0 -13 6 -10 14 3 8 -3 22 -14 31 -12 12 -17 26 -13 39 3 14 -3 32 -16
48 -12 16 -16 29 -11 33 7 4 7 15 1 31 -15 37 -12 65 7 86 12 13 13 18 4 16
-7 -2 -15 5 -16 15 -2 9 3 17 11 17 8 0 13 6 12 13 -2 6 4 12 12 12 8 0 18 7
21 15 3 8 17 18 30 21 38 11 42 10 29 -6z m-530 -130 c0 -8 -2 -15 -4 -15 -2
0 -6 7 -10 15 -3 8 -1 15 4 15 6 0 10 -7 10 -15z m20 -67 c0 -19 -2 -20 -10
-8 -13 19 -13 30 0 30 6 0 10 -10 10 -22z m7370 -173 c0 -8 -2 -15 -4 -15 -2
0 -6 7 -10 15 -3 8 -1 15 4 15 6 0 10 -7 10 -15z m235 -253 c72 -74 209 -207
305 -295 276 -253 449 -427 461 -465 17 -51 2 -58 -66 -33 -107 40 -121 50
-205 151 -78 94 -191 217 -335 364 -23 22 -72 79 -109 126 -38 47 -77 95 -87
108 -10 12 -19 26 -19 30 0 5 -12 19 -26 33 -14 13 -33 38 -41 54 -9 17 -31
48 -49 71 -19 23 -34 46 -34 53 0 6 -4 11 -10 11 -5 0 -10 8 -10 17 0 10 18
-4 48 -37 26 -30 106 -114 177 -188z m-5285 108 c0 -5 -5 -10 -11 -10 -5 0 -7
5 -4 10 3 6 8 10 11 10 2 0 4 -4 4 -10z m-1780 -4 c0 -3 -4 -8 -10 -11 -5 -3
-10 -1 -10 4 0 6 5 11 10 11 6 0 10 -2 10 -4z m1759 -37 c-22 -13 -31 -11 -17
5 7 8 17 12 22 9 4 -3 2 -9 -5 -14z m-3651 -151 c6 -67 3 -80 -23 -115 -16
-21 -32 -40 -35 -43 -5 -5 -68 -100 -126 -190 -20 -32 -107 -192 -144 -265 -8
-17 -22 -36 -30 -43 -25 -22 -78 -42 -94 -36 -18 7 -21 45 -7 72 48 88 72 168
56 184 -11 10 -125 -26 -125 -39 0 -16 -17 -17 -22 -2 -2 5 -24 -4 -48 -20
-25 -17 -50 -31 -57 -31 -7 0 -32 -11 -56 -25 -25 -13 -47 -21 -51 -18 -3 4
-6 -1 -6 -10 0 -10 -4 -17 -10 -17 -5 0 -10 5 -10 12 0 6 -10 2 -22 -9 -24
-21 -125 -63 -165 -68 -13 -2 -41 -6 -63 -10 -22 -4 -50 -8 -63 -10 -35 -6
-78 -15 -135 -27 -60 -13 -72 -6 -72 43 0 45 37 169 63 207 19 30 34 40 75 51
57 14 105 12 141 -5 13 -7 38 -11 57 -9 41 4 51 -8 27 -32 -10 -10 -24 -31
-30 -46 -8 -16 -20 -27 -33 -27 -11 0 -20 -5 -20 -11 0 -17 66 -6 125 21 28
12 66 29 85 38 19 9 40 17 45 19 6 1 46 13 90 27 44 13 98 27 120 31 65 11 69
12 93 20 12 4 22 11 22 16 0 5 5 9 11 9 6 0 29 19 52 43 37 38 99 77 123 77 4
0 61 56 127 125 65 69 122 125 126 125 4 0 8 -6 9 -12z"/>
<path d="M13971 10034 c0 -11 3 -14 6 -6 3 7 2 16 -1 19 -3 4 -6 -2 -5 -13z"/>
<path d="M14220 8324 c0 -8 5 -12 10 -9 6 3 10 10 10 16 0 5 -4 9 -10 9 -5 0
-10 -7 -10 -16z"/>
<path d="M12670 7380 c0 -5 7 -10 16 -10 8 0 12 5 9 10 -3 6 -10 10 -16 10 -5
0 -9 -4 -9 -10z"/>
<path d="M12677 7340 c3 -11 9 -20 13 -20 4 0 10 9 13 20 4 15 0 20 -13 20
-13 0 -17 -5 -13 -20z"/>
<path d="M12706 7243 c-3 -10 -9 -23 -12 -30 -3 -6 3 -13 13 -16 13 -3 11 -5
-7 -6 -15 -1 -20 -4 -14 -9 9 -5 8 -24 -3 -72 -17 -73 -18 -83 -15 -157 2 -40
6 -53 17 -53 8 0 15 -4 15 -10 0 -5 -5 -10 -11 -10 -5 0 -8 -4 -4 -9 3 -5 0
-13 -5 -16 -8 -5 -6 -11 4 -18 36 -27 57 -251 29 -296 -8 -12 -13 -32 -10 -42
3 -10 2 -19 -2 -19 -22 0 -17 -187 8 -251 12 -33 77 -90 94 -83 19 7 31 176
31 464 0 261 -8 327 -59 486 -18 55 -36 115 -40 132 -7 35 -19 41 -29 15z"/>
<path d="M11190 6790 c0 -11 -110 -120 -166 -165 -27 -22 -65 -53 -84 -71 -33
-30 -154 -100 -263 -153 -58 -28 -58 -44 -2 -82 77 -52 168 -63 243 -29 23 10
42 16 42 12 0 -17 111 -1 138 21 6 5 12 6 12 3 0 -4 7 -1 15 8 8 8 15 19 15
24 0 5 10 13 23 17 17 6 19 8 6 12 -10 2 -19 13 -22 25 -5 16 -2 19 14 15 23
-6 24 -1 5 18 -7 8 -17 11 -21 7 -4 -4 -6 -2 -4 4 4 11 31 45 105 132 55 65
58 77 34 128 -12 24 -25 42 -30 39 -4 -3 -10 3 -13 14 -4 17 -47 37 -47 21z"/>
<path d="M13184 6325 c-11 -61 -12 -388 -1 -470 12 -94 20 -159 20 -172 0 -7
3 -13 6 -13 3 0 6 -37 6 -82 0 -118 7 -239 15 -268 6 -22 8 -18 18 28 12 52
18 264 9 279 -3 5 -8 112 -11 239 -4 126 -11 248 -16 270 -5 21 -10 62 -10 89
0 28 -6 73 -14 100 l-13 50 -9 -50z"/>
<path d="M12788 5918 c16 -16 15 -31 -2 -25 -11 4 -14 -1 -13 -21 1 -18 -3
-26 -11 -24 -8 1 -11 -2 -7 -8 3 -5 2 -10 -4 -10 -5 0 -11 -12 -13 -27 -2 -17
-8 -27 -17 -25 -8 2 -11 -3 -8 -13 4 -8 1 -15 -6 -15 -18 0 -69 -82 -63 -103
2 -9 0 -15 -5 -11 -8 5 -21 -21 -69 -131 -20 -46 -27 -130 -10 -120 5 3 10 -1
10 -9 0 -9 6 -16 14 -16 9 0 12 -7 9 -20 -3 -11 1 -28 8 -37 12 -15 12 -16 -3
-10 -12 4 -18 2 -18 -7 0 -7 -19 -21 -42 -32 -24 -10 -78 -40 -120 -66 -127
-79 -142 -76 -224 39 -26 37 -51 70 -54 73 -11 9 -75 112 -75 121 0 23 -20 11
-26 -16 -3 -16 -20 -56 -37 -87 -17 -32 -28 -58 -24 -58 3 0 1 -5 -6 -12 -7
-7 -12 -18 -12 -26 0 -7 -9 -33 -20 -58 -11 -24 -23 -59 -27 -77 -3 -17 -10
-38 -16 -45 -7 -9 -2 -22 21 -45 43 -44 67 -104 91 -227 12 -58 26 -113 31
-122 6 -10 10 -28 10 -40 0 -13 9 -54 19 -93 11 -38 24 -101 29 -138 6 -37 19
-80 29 -94 10 -14 25 -38 33 -53 19 -35 54 -75 113 -127 51 -47 77 -54 77 -23
0 11 5 20 11 20 6 0 9 -7 5 -15 -3 -8 0 -14 6 -12 7 1 12 -6 13 -15 0 -33 37
-53 92 -53 29 1 48 -2 42 -5 -5 -4 7 -12 28 -18 34 -11 40 -10 55 9 25 29 42
92 34 123 -4 18 -16 28 -39 35 -23 6 -26 10 -12 11 14 2 11 4 -10 9 -34 7 -43
31 -20 55 15 14 15 16 1 16 -14 0 -14 3 -4 20 10 16 10 24 -1 41 -11 18 -11
23 1 30 11 8 11 11 -1 18 -12 8 -12 12 -2 24 10 12 7 19 -16 35 -35 24 -62 15
-124 -40 -10 -10 -23 -18 -29 -18 -12 0 -35 -41 -32 -57 2 -7 -4 -13 -13 -13
-8 0 -15 4 -15 10 0 5 -17 12 -37 16 -52 9 -59 15 -39 30 11 8 18 27 19 53 1
22 7 43 13 45 6 2 9 15 7 29 -4 19 0 26 19 32 12 4 31 6 41 5 9 -1 17 4 17 9
0 6 -4 11 -10 11 -5 0 -10 5 -10 11 0 5 9 9 20 7 10 -2 19 0 20 5 0 4 9 16 20
27 11 11 20 29 20 41 0 12 8 23 19 26 13 3 18 10 14 20 -5 13 -1 15 20 9 26
-6 47 8 25 17 -8 4 -4 8 10 12 12 4 22 11 22 16 0 5 8 17 18 27 71 75 253 510
252 603 0 13 4 69 9 124 10 92 6 389 -5 443 -2 12 -10 22 -16 22 -9 0 -9 -3 0
-12z m-443 -1658 c3 -5 -1 -10 -9 -10 -9 0 -16 5 -16 10 0 6 4 10 9 10 6 0 13
-4 16 -10z m8 -34 c4 -10 1 -13 -9 -9 -15 6 -19 23 -5 23 5 0 11 -7 14 -14z
m5 -84 c4 -44 -15 -41 -20 3 -2 22 0 34 6 32 6 -2 12 -18 14 -35z m225 -32
c-7 -28 -13 -25 -13 6 0 14 4 23 9 20 5 -3 7 -15 4 -26z m-23 0 c0 -5 -4 -10
-10 -10 -5 0 -10 5 -10 10 0 6 5 10 10 10 6 0 10 -4 10 -10z"/>
<path d="M12915 5841 c-4 -39 -4 -75 0 -80 3 -6 0 -8 -8 -5 -12 4 -15 -3 -13
-35 1 -22 -2 -38 -6 -35 -4 3 -8 1 -8 -5 0 -5 6 -12 13 -14 9 -4 9 -8 -2 -15
-8 -6 -10 -15 -6 -22 4 -7 9 -42 11 -77 1 -36 4 -67 7 -69 2 -3 16 0 31 6 21
8 26 15 21 30 -3 11 -3 25 1 31 10 17 13 198 3 205 -5 3 -9 11 -9 17 0 7 4 6
10 -3 7 -11 10 -7 10 18 0 17 -5 32 -10 32 -6 0 -8 10 -4 24 4 16 1 25 -10 29
-9 4 -13 13 -10 22 3 8 2 15 -4 15 -5 0 -13 -31 -17 -69z"/>
<path d="M11616 5810 c-83 -87 -153 -187 -192 -277 -40 -90 -74 -203 -80 -268
l-6 -60 28 31 c36 37 84 69 84 54 0 -6 8 -9 18 -6 12 4 32 -7 62 -34 24 -22
47 -40 51 -40 4 0 31 -20 60 -45 29 -25 57 -45 63 -45 5 0 6 3 3 7 -4 3 -2 11
3 18 5 6 11 20 13 31 1 10 6 24 10 31 15 24 45 153 35 153 -5 0 -6 18 -3 40 4
27 2 40 -6 40 -8 0 -8 4 -1 13 6 7 10 40 9 73 -2 64 -20 89 -66 89 -13 0 -28
7 -34 16 -10 16 8 49 54 102 16 18 52 87 62 119 4 12 -3 18 -29 23 -20 3 -41
8 -48 11 -7 3 -47 -32 -90 -76z"/>
<path d="M15121 5714 c0 -11 3 -14 6 -6 3 7 2 16 -1 19 -3 4 -6 -2 -5 -13z"/>
<path d="M12010 5636 c0 -14 4 -27 9 -30 5 -3 12 -37 16 -76 5 -50 11 -70 21
-70 8 0 14 10 14 24 0 14 5 28 11 32 18 10 3 72 -26 110 -31 40 -45 43 -45 10z"/>
<path d="M12916 5402 c-3 -22 -4 -46 -1 -54 5 -12 68 -58 79 -58 8 0 4 80 -4
85 -5 3 -6 14 -3 25 5 19 -10 26 -41 21 -5 -1 -12 3 -16 9 -4 7 -10 -6 -14
-28z"/>
<path d="M15145 5260 c-3 -5 3 -10 14 -10 12 0 21 5 21 10 0 6 -6 10 -14 10
-8 0 -18 -4 -21 -10z"/>
<path d="M15170 5074 c0 -8 5 -12 10 -9 6 4 8 11 5 16 -9 14 -15 11 -15 -7z"/>
<path d="M12936 4927 c-66 -137 -104 -265 -87 -294 6 -10 11 -12 11 -5 0 6 7
12 15 12 8 0 15 8 15 18 0 9 9 32 20 50 11 18 20 40 20 50 0 10 5 23 11 29 10
10 49 170 49 200 0 31 -21 8 -54 -60z"/>
<path d="M12637 4520 c3 -11 -1 -27 -8 -36 -10 -13 -10 -17 1 -24 9 -5 17 -5
20 0 8 13 0 80 -10 80 -5 0 -6 -9 -3 -20z"/>
<path d="M11930 4415 c7 -9 15 -13 17 -11 7 7 -7 26 -19 26 -6 0 -6 -6 2 -15z"/>
<path d="M11210 4140 c0 -5 5 -10 10 -10 6 0 10 5 10 10 0 6 -4 10 -10 10 -5
0 -10 -4 -10 -10z"/>
<path d="M11240 4030 c0 -5 5 -10 10 -10 6 0 10 5 10 10 0 6 -4 10 -10 10 -5
0 -10 -4 -10 -10z"/>
<path d="M12950 3989 c0 -5 5 -7 10 -4 6 3 10 8 10 11 0 2 -4 4 -10 4 -5 0
-10 -5 -10 -11z"/>
<path d="M13036 3983 c-6 -14 -5 -15 5 -6 7 7 10 15 7 18 -3 3 -9 -2 -12 -12z"/>
<path d="M11985 3770 c3 -5 0 -10 -7 -10 -7 0 -22 -19 -33 -43 -11 -23 -25
-46 -32 -50 -7 -4 -13 -15 -13 -22 0 -8 -7 -15 -16 -15 -10 0 -14 -6 -10 -15
3 -8 0 -15 -7 -15 -7 0 -14 -14 -15 -32 -2 -18 -7 -35 -13 -37 -6 -2 -3 -11 7
-22 9 -10 14 -19 9 -19 -4 0 0 -11 9 -25 22 -34 10 -53 -15 -26 -11 12 -24 21
-29 21 -4 0 -15 3 -24 6 -11 4 -16 0 -16 -14 0 -12 -4 -23 -9 -26 -12 -8 -3
-101 15 -158 24 -74 83 -154 140 -189 130 -80 379 -86 493 -12 18 11 29 13 47
5 19 -9 29 -6 60 14 52 36 71 62 78 111 5 38 27 119 44 163 8 22 10 40 17 189
10 193 -14 252 -76 186 -13 -13 -30 -25 -38 -25 -17 0 -40 -30 -41 -52 0 -23
-18 -23 -43 -1 -18 17 -19 17 -28 0 -14 -24 -42 -23 -34 2 3 11 1 22 -4 26 -7
4 -9 -1 -5 -12 4 -12 -3 -8 -20 10 -20 22 -33 28 -51 23 -14 -4 -25 -1 -28 7
-3 6 -6 -8 -6 -32 l-1 -45 -34 39 c-27 30 -39 36 -58 32 -17 -5 -29 -1 -41 13
-19 23 -43 26 -50 8 -3 -9 -11 -7 -27 7 -12 11 -25 20 -29 20 -3 0 -5 3 -4 6
1 4 -6 5 -16 2 -10 -3 -22 0 -25 6 -4 6 -12 11 -17 11 -6 0 -7 -4 -4 -10z
m-52 -344 c3 3 12 2 19 -2 9 -6 6 -10 -12 -14 -36 -9 -50 -1 -50 29 l1 26 18
-22 c10 -12 21 -20 24 -17z"/>
<path d="M12160 2060 c0 -5 7 -10 16 -10 8 0 12 5 9 10 -3 6 -10 10 -16 10 -5
0 -9 -4 -9 -10z"/>
<path d="M14945 9970 c3 -5 8 -10 11 -10 2 0 4 5 4 10 0 6 -5 10 -11 10 -5 0
-7 -4 -4 -10z"/>
<path d="M10936 9241 c-4 -7 -5 -15 -2 -18 9 -9 19 4 14 18 -4 11 -6 11 -12 0z"/>
<path d="M8050 5525 c0 -16 37 -50 58 -53 23 -3 52 13 52 28 0 4 -17 11 -37
14 -21 4 -46 9 -55 12 -10 3 -18 2 -18 -1z"/>
<path d="M7915 4410 c-3 -5 -1 -10 4 -10 6 0 11 5 11 10 0 6 -2 10 -4 10 -3 0
-8 -4 -11 -10z"/>
<path d="M10015 2660 c-3 -5 -1 -10 4 -10 6 0 11 5 11 10 0 6 -2 10 -4 10 -3
0 -8 -4 -11 -10z"/>
<path d="M10105 2560 c-3 -6 1 -7 9 -4 18 7 21 14 7 14 -6 0 -13 -4 -16 -10z"/>
<path d="M9781 1104 c0 -11 3 -14 6 -6 3 7 2 16 -1 19 -3 4 -6 -2 -5 -13z"/>
<path d="M14990 3530 c0 -5 5 -10 10 -10 6 0 10 5 10 10 0 6 -4 10 -10 10 -5
0 -10 -4 -10 -10z"/>
</g>
</svg>
